<svg id="visual" width="1080" height="300" xmlns="http://www.w3.org/2000/svg" xmlns:xlink="http://www.w3.org/1999/xlink" version="1.1"><path d="M0 55L7.8 51.8C15.7 48.7 31.3 42.3 47 42.5C62.7 42.7 78.3 49.3 94 53.3C109.7 57.3 125.3 58.7 141 55.7C156.7 52.7 172.3 45.3 188 44C203.7 42.7 219.3 47.3 235 50.3C250.7 53.3 266.3 54.7 282 51.2C297.7 47.7 313.3 39.3 329 34.7C344.7 30 360.3 29 376 32C391.7 35 407.3 42 423 48.2C438.7 54.3 454.3 59.7 470 60.8C485.7 62 501.3 59 516.8 55.8C532.3 52.7 547.7 49.3 563.2 46.2C578.7 43 594.3 40 610 40.2C625.7 40.3 641.3 43.7 657 42.2C672.7 40.7 688.3 34.3 704 34.3C719.7 34.3 735.3 40.7 751 41.8C766.7 43 782.3 39 798 38.8C813.7 38.7 829.3 42.3 845 43C860.7 43.7 876.3 41.3 892 39.8C907.7 38.3 923.3 37.7 939 40.7C954.7 43.7 970.3 50.3 986 50.7C1001.7 51 1017.3 45 1033 41.5C1048.7 38 1064.3 37 1072.2 36.5L1080 36L1080 301L1072.2 301C1064.3 301 1048.7 301 1033 301C1017.3 301 1001.7 301 986 301C970.3 301 954.7 301 939 301C923.3 301 907.7 301 892 301C876.3 301 860.7 301 845 301C829.3 301 813.7 301 798 301C782.3 301 766.7 301 751 301C735.3 301 719.7 301 704 301C688.3 301 672.7 301 657 301C641.3 301 625.7 301 610 301C594.3 301 578.7 301 563.2 301C547.7 301 532.3 301 516.8 301C501.3 301 485.7 301 470 301C454.3 301 438.7 301 423 301C407.3 301 391.7 301 376 301C360.3 301 344.7 301 329 301C313.3 301 297.7 301 282 301C266.3 301 250.7 301 235 301C219.3 301 203.7 301 188 301C172.3 301 156.7 301 141 301C125.3 301 109.7 301 94 301C78.3 301 62.7 301 47 301C31.3 301 15.7 301 7.8 301L0 301Z" fill="#fb98fb"></path><path d="M0 70L7.8 71.5C15.7 73 31.3 76 47 78.2C62.7 80.3 78.3 81.7 94 82.7C109.7 83.7 125.3 84.3 141 83.7C156.7 83 172.3 81 188 77.7C203.7 74.3 219.3 69.7 235 66.8C250.7 64 266.3 63 282 60.5C297.7 58 313.3 54 329 53.5C344.7 53 360.3 56 376 62C391.7 68 407.3 77 423 80.7C438.7 84.3 454.3 82.7 470 82C485.7 81.3 501.3 81.7 516.8 80.2C532.3 78.7 547.7 75.3 563.2 71.8C578.7 68.3 594.3 64.7 610 66C625.7 67.3 641.3 73.7 657 73.8C672.7 74 688.3 68 704 65.5C719.7 63 735.3 64 751 63C766.7 62 782.3 59 798 57.5C813.7 56 829.3 56 845 60.5C860.7 65 876.3 74 892 73.8C907.7 73.7 923.3 64.3 939 62.3C954.7 60.3 970.3 65.7 986 69.8C1001.7 74 1017.3 77 1033 74.2C1048.7 71.3 1064.3 62.7 1072.2 58.3L1080 54L1080 301L1072.2 301C1064.3 301 1048.7 301 1033 301C1017.3 301 1001.7 301 986 301C970.3 301 954.7 301 939 301C923.3 301 907.7 301 892 301C876.3 301 860.7 301 845 301C829.3 301 813.7 301 798 301C782.3 301 766.7 301 751 301C735.3 301 719.7 301 704 301C688.3 301 672.7 301 657 301C641.3 301 625.7 301 610 301C594.3 301 578.7 301 563.2 301C547.7 301 532.3 301 516.8 301C501.3 301 485.7 301 470 301C454.3 301 438.7 301 423 301C407.3 301 391.7 301 376 301C360.3 301 344.7 301 329 301C313.3 301 297.7 301 282 301C266.3 301 250.7 301 235 301C219.3 301 203.7 301 188 301C172.3 301 156.7 301 141 301C125.3 301 109.7 301 94 301C78.3 301 62.7 301 47 301C31.3 301 15.7 301 7.8 301L0 301Z" fill="#ff97e8"></path><path d="M0 82L7.8 82.2C15.7 82.3 31.3 82.7 47 84.7C62.7 86.7 78.3 90.3 94 91.2C109.7 92 125.3 90 141 90.3C156.7 90.7 172.3 93.3 188 96.3C203.7 99.3 219.3 102.7 235 103.8C250.7 105 266.3 104 282 100C297.7 96 313.3 89 329 84.5C344.7 80 360.3 78 376 79.7C391.7 81.3 407.3 86.7 423 88.5C438.7 90.3 454.3 88.7 470 85.8C485.7 83 501.3 79 516.8 79.2C532.3 79.3 547.7 83.7 563.2 87.8C578.7 92 594.3 96 610 97.2C625.7 98.3 641.3 96.7 657 93.5C672.7 90.3 688.3 85.7 704 83C719.7 80.3 735.3 79.7 751 81C766.7 82.3 782.3 85.7 798 85.7C813.7 85.7 829.3 82.3 845 81.2C860.7 80 876.3 81 892 84.3C907.7 87.7 923.3 93.3 939 91.8C954.7 90.3 970.3 81.7 986 80.7C1001.7 79.7 1017.3 86.3 1033 89.3C1048.7 92.3 1064.3 91.7 1072.2 91.3L1080 91L1080 301L1072.2 301C1064.3 301 1048.7 301 1033 301C1017.3 301 1001.7 301 986 301C970.3 301 954.7 301 939 301C923.3 301 907.7 301 892 301C876.3 301 860.7 301 845 301C829.3 301 813.7 301 798 301C782.3 301 766.7 301 751 301C735.3 301 719.7 301 704 301C688.3 301 672.7 301 657 301C641.3 301 625.7 301 610 301C594.3 301 578.7 301 563.2 301C547.7 301 532.3 301 516.8 301C501.3 301 485.7 301 470 301C454.3 301 438.7 301 423 301C407.3 301 391.7 301 376 301C360.3 301 344.7 301 329 301C313.3 301 297.7 301 282 301C266.3 301 250.7 301 235 301C219.3 301 203.7 301 188 301C172.3 301 156.7 301 141 301C125.3 301 109.7 301 94 301C78.3 301 62.7 301 47 301C31.3 301 15.7 301 7.8 301L0 301Z" fill="#ff97d7"></path><path d="M0 114L7.8 114C15.7 114 31.3 114 47 115.3C62.7 116.7 78.3 119.3 94 117.7C109.7 116 125.3 110 141 108.3C156.7 106.7 172.3 109.3 188 110.2C203.7 111 219.3 110 235 111.2C250.7 112.3 266.3 115.7 282 116.3C297.7 117 313.3 115 329 111.3C344.7 107.7 360.3 102.3 376 101.7C391.7 101 407.3 105 423 108C438.7 111 454.3 113 470 111.8C485.7 110.7 501.3 106.3 516.8 103.2C532.3 100 547.7 98 563.2 100.3C578.7 102.7 594.3 109.3 610 109C625.7 108.7 641.3 101.3 657 103C672.7 104.7 688.3 115.3 704 119C719.7 122.7 735.3 119.3 751 116.5C766.7 113.7 782.3 111.3 798 108.2C813.7 105 829.3 101 845 102.8C860.7 104.7 876.3 112.3 892 114C907.7 115.7 923.3 111.3 939 108.3C954.7 105.3 970.3 103.7 986 105.8C1001.7 108 1017.3 114 1033 113C1048.7 112 1064.3 104 1072.2 100L1080 96L1080 301L1072.2 301C1064.3 301 1048.7 301 1033 301C1017.3 301 1001.7 301 986 301C970.3 301 954.7 301 939 301C923.3 301 907.7 301 892 301C876.3 301 860.7 301 845 301C829.3 301 813.7 301 798 301C782.3 301 766.7 301 751 301C735.3 301 719.7 301 704 301C688.3 301 672.7 301 657 301C641.3 301 625.7 301 610 301C594.3 301 578.7 301 563.2 301C547.7 301 532.3 301 516.8 301C501.3 301 485.7 301 470 301C454.3 301 438.7 301 423 301C407.3 301 391.7 301 376 301C360.3 301 344.7 301 329 301C313.3 301 297.7 301 282 301C266.3 301 250.7 301 235 301C219.3 301 203.7 301 188 301C172.3 301 156.7 301 141 301C125.3 301 109.7 301 94 301C78.3 301 62.7 301 47 301C31.3 301 15.7 301 7.8 301L0 301Z" fill="#ff9ac8"></path><path d="M0 126L7.8 126C15.7 126 31.3 126 47 124.7C62.7 123.3 78.3 120.7 94 119.5C109.7 118.3 125.3 118.7 141 121.8C156.7 125 172.3 131 188 134C203.7 137 219.3 137 235 135.2C250.7 133.3 266.3 129.7 282 129.5C297.7 129.3 313.3 132.7 329 131.3C344.7 130 360.3 124 376 123.5C391.7 123 407.3 128 423 130.7C438.7 133.3 454.3 133.7 470 133.2C485.7 132.7 501.3 131.3 516.8 128.3C532.3 125.3 547.7 120.7 563.2 121C578.7 121.3 594.3 126.7 610 131.2C625.7 135.7 641.3 139.3 657 139.3C672.7 139.3 688.3 135.7 704 133.5C719.7 131.3 735.3 130.7 751 128.5C766.7 126.3 782.3 122.7 798 123C813.7 123.3 829.3 127.7 845 131.7C860.7 135.7 876.3 139.3 892 138.2C907.7 137 923.3 131 939 130.3C954.7 129.7 970.3 134.3 986 134.8C1001.7 135.3 1017.3 131.7 1033 129.7C1048.7 127.7 1064.3 127.3 1072.2 127.2L1080 127L1080 301L1072.2 301C1064.3 301 1048.7 301 1033 301C1017.3 301 1001.7 301 986 301C970.3 301 954.7 301 939 301C923.3 301 907.7 301 892 301C876.3 301 860.7 301 845 301C829.3 301 813.7 301 798 301C782.3 301 766.7 301 751 301C735.3 301 719.7 301 704 301C688.3 301 672.7 301 657 301C641.3 301 625.7 301 610 301C594.3 301 578.7 301 563.2 301C547.7 301 532.3 301 516.8 301C501.3 301 485.7 301 470 301C454.3 301 438.7 301 423 301C407.3 301 391.7 301 376 301C360.3 301 344.7 301 329 301C313.3 301 297.7 301 282 301C266.3 301 250.7 301 235 301C219.3 301 203.7 301 188 301C172.3 301 156.7 301 141 301C125.3 301 109.7 301 94 301C78.3 301 62.7 301 47 301C31.3 301 15.7 301 7.8 301L0 301Z" fill="#ff9ebb"></path><path d="M0 162L7.8 160.8C15.7 159.7 31.3 157.3 47 156.8C62.7 156.3 78.3 157.7 94 157.5C109.7 157.3 125.3 155.7 141 154C156.7 152.3 172.3 150.7 188 148.5C203.7 146.3 219.3 143.7 235 145.5C250.7 147.3 266.3 153.7 282 155.7C297.7 157.7 313.3 155.3 329 153.2C344.7 151 360.3 149 376 147.5C391.7 146 407.3 145 423 146.3C438.7 147.7 454.3 151.3 470 153.2C485.7 155 501.3 155 516.8 152C532.3 149 547.7 143 563.2 143.2C578.7 143.3 594.3 149.7 610 151.5C625.7 153.3 641.3 150.7 657 151C672.7 151.3 688.3 154.7 704 156.8C719.7 159 735.3 160 751 157.2C766.7 154.3 782.3 147.7 798 147.5C813.7 147.3 829.3 153.7 845 153C860.7 152.3 876.3 144.7 892 142.7C907.7 140.7 923.3 144.3 939 145.3C954.7 146.3 970.3 144.7 986 143.2C1001.7 141.7 1017.3 140.3 1033 143.8C1048.7 147.3 1064.3 155.7 1072.2 159.8L1080 164L1080 301L1072.2 301C1064.3 301 1048.7 301 1033 301C1017.3 301 1001.7 301 986 301C970.3 301 954.7 301 939 301C923.3 301 907.7 301 892 301C876.3 301 860.7 301 845 301C829.3 301 813.7 301 798 301C782.3 301 766.7 301 751 301C735.3 301 719.7 301 704 301C688.3 301 672.7 301 657 301C641.3 301 625.7 301 610 301C594.3 301 578.7 301 563.2 301C547.7 301 532.3 301 516.8 301C501.3 301 485.7 301 470 301C454.3 301 438.7 301 423 301C407.3 301 391.7 301 376 301C360.3 301 344.7 301 329 301C313.3 301 297.7 301 282 301C266.3 301 250.7 301 235 301C219.3 301 203.7 301 188 301C172.3 301 156.7 301 141 301C125.3 301 109.7 301 94 301C78.3 301 62.7 301 47 301C31.3 301 15.7 301 7.8 301L0 301Z" fill="#ffa2b1"></path><path d="M0 160L7.8 159.8C15.7 159.7 31.3 159.3 47 159.3C62.7 159.3 78.3 159.7 94 162.8C109.7 166 125.3 172 141 175C156.7 178 172.3 178 188 175.7C203.7 173.3 219.3 168.7 235 169C250.7 169.3 266.3 174.7 282 176C297.7 177.3 313.3 174.7 329 175.5C344.7 176.3 360.3 180.7 376 181.7C391.7 182.7 407.3 180.3 423 180.3C438.7 180.3 454.3 182.7 470 183.5C485.7 184.3 501.3 183.7 516.8 183.2C532.3 182.7 547.7 182.3 563.2 179C578.7 175.7 594.3 169.3 610 169.8C625.7 170.3 641.3 177.7 657 179.5C672.7 181.3 688.3 177.7 704 173.7C719.7 169.7 735.3 165.3 751 162.8C766.7 160.3 782.3 159.7 798 162.5C813.7 165.3 829.3 171.7 845 175.3C860.7 179 876.3 180 892 178.3C907.7 176.7 923.3 172.3 939 171.3C954.7 170.3 970.3 172.7 986 172.7C1001.7 172.7 1017.3 170.3 1033 168.3C1048.7 166.3 1064.3 164.7 1072.2 163.8L1080 163L1080 301L1072.2 301C1064.3 301 1048.7 301 1033 301C1017.3 301 1001.7 301 986 301C970.3 301 954.7 301 939 301C923.3 301 907.7 301 892 301C876.3 301 860.7 301 845 301C829.3 301 813.7 301 798 301C782.3 301 766.7 301 751 301C735.3 301 719.7 301 704 301C688.3 301 672.7 301 657 301C641.3 301 625.7 301 610 301C594.3 301 578.7 301 563.2 301C547.7 301 532.3 301 516.8 301C501.3 301 485.7 301 470 301C454.3 301 438.7 301 423 301C407.3 301 391.7 301 376 301C360.3 301 344.7 301 329 301C313.3 301 297.7 301 282 301C266.3 301 250.7 301 235 301C219.3 301 203.7 301 188 301C172.3 301 156.7 301 141 301C125.3 301 109.7 301 94 301C78.3 301 62.7 301 47 301C31.3 301 15.7 301 7.8 301L0 301Z" fill="#ffa8aa"></path><path d="M0 188L7.8 189.2C15.7 190.3 31.3 192.7 47 192.7C62.7 192.7 78.3 190.3 94 188.8C109.7 187.3 125.3 186.7 141 187C156.7 187.3 172.3 188.7 188 191.3C203.7 194 219.3 198 235 198.3C250.7 198.7 266.3 195.3 282 192.7C297.7 190 313.3 188 329 186.7C344.7 185.3 360.3 184.7 376 184.7C391.7 184.7 407.3 185.3 423 188.7C438.7 192 454.3 198 470 200.2C485.7 202.3 501.3 200.7 516.8 197.2C532.3 193.7 547.7 188.3 563.2 188.8C578.7 189.3 594.3 195.7 610 195.5C625.7 195.3 641.3 188.7 657 188.7C672.7 188.7 688.3 195.3 704 198.7C719.7 202 735.3 202 751 198.8C766.7 195.7 782.3 189.3 798 187.2C813.7 185 829.3 187 845 188.2C860.7 189.3 876.3 189.7 892 188.8C907.7 188 923.3 186 939 185.5C954.7 185 970.3 186 986 186.3C1001.7 186.7 1017.3 186.3 1033 188.3C1048.7 190.3 1064.3 194.7 1072.2 196.8L1080 199L1080 301L1072.2 301C1064.3 301 1048.7 301 1033 301C1017.3 301 1001.7 301 986 301C970.3 301 954.7 301 939 301C923.3 301 907.7 301 892 301C876.3 301 860.7 301 845 301C829.3 301 813.7 301 798 301C782.3 301 766.7 301 751 301C735.3 301 719.7 301 704 301C688.3 301 672.7 301 657 301C641.3 301 625.7 301 610 301C594.3 301 578.7 301 563.2 301C547.7 301 532.3 301 516.8 301C501.3 301 485.7 301 470 301C454.3 301 438.7 301 423 301C407.3 301 391.7 301 376 301C360.3 301 344.7 301 329 301C313.3 301 297.7 301 282 301C266.3 301 250.7 301 235 301C219.3 301 203.7 301 188 301C172.3 301 156.7 301 141 301C125.3 301 109.7 301 94 301C78.3 301 62.7 301 47 301C31.3 301 15.7 301 7.8 301L0 301Z" fill="#ffaea3"></path><path d="M0 208L7.8 208.3C15.7 208.7 31.3 209.3 47 210.7C62.7 212 78.3 214 94 213.2C109.7 212.3 125.3 208.7 141 207.2C156.7 205.7 172.3 206.3 188 209.2C203.7 212 219.3 217 235 219C250.7 221 266.3 220 282 219.2C297.7 218.3 313.3 217.7 329 216.2C344.7 214.7 360.3 212.3 376 211C391.7 209.7 407.3 209.3 423 210.2C438.7 211 454.3 213 470 213.7C485.7 214.3 501.3 213.7 516.8 213.8C532.3 214 547.7 215 563.2 215.8C578.7 216.7 594.3 217.3 610 218.8C625.7 220.3 641.3 222.7 657 220.3C672.7 218 688.3 211 704 210.8C719.7 210.7 735.3 217.3 751 217C766.7 216.7 782.3 209.3 798 209.2C813.7 209 829.3 216 845 216.5C860.7 217 876.3 211 892 210.8C907.7 210.7 923.3 216.3 939 218.5C954.7 220.7 970.3 219.3 986 217.2C1001.7 215 1017.3 212 1033 212.3C1048.7 212.7 1064.3 216.3 1072.2 218.2L1080 220L1080 301L1072.2 301C1064.3 301 1048.7 301 1033 301C1017.3 301 1001.7 301 986 301C970.3 301 954.7 301 939 301C923.3 301 907.7 301 892 301C876.3 301 860.7 301 845 301C829.3 301 813.7 301 798 301C782.3 301 766.7 301 751 301C735.3 301 719.7 301 704 301C688.3 301 672.7 301 657 301C641.3 301 625.7 301 610 301C594.3 301 578.7 301 563.2 301C547.7 301 532.3 301 516.8 301C501.3 301 485.7 301 470 301C454.3 301 438.7 301 423 301C407.3 301 391.7 301 376 301C360.3 301 344.7 301 329 301C313.3 301 297.7 301 282 301C266.3 301 250.7 301 235 301C219.3 301 203.7 301 188 301C172.3 301 156.7 301 141 301C125.3 301 109.7 301 94 301C78.3 301 62.7 301 47 301C31.3 301 15.7 301 7.8 301L0 301Z" fill="#ffb49e"></path><path d="M0 243L7.8 240C15.7 237 31.3 231 47 228.2C62.7 225.3 78.3 225.7 94 226.8C109.7 228 125.3 230 141 232.2C156.7 234.3 172.3 236.7 188 236.8C203.7 237 219.3 235 235 233.2C250.7 231.3 266.3 229.7 282 231.7C297.7 233.7 313.3 239.3 329 241.3C344.7 243.3 360.3 241.7 376 241.2C391.7 240.7 407.3 241.3 423 241.5C438.7 241.7 454.3 241.3 470 239.8C485.7 238.3 501.3 235.7 516.8 235.8C532.3 236 547.7 239 563.2 240C578.7 241 594.3 240 610 237C625.7 234 641.3 229 657 230C672.7 231 688.3 238 704 238.5C719.7 239 735.3 233 751 232C766.7 231 782.3 235 798 237.7C813.7 240.3 829.3 241.7 845 242.7C860.7 243.7 876.3 244.3 892 243C907.7 241.7 923.3 238.3 939 237.8C954.7 237.3 970.3 239.7 986 238.5C1001.7 237.3 1017.3 232.7 1033 229.5C1048.7 226.3 1064.3 224.7 1072.2 223.8L1080 223L1080 301L1072.2 301C1064.3 301 1048.7 301 1033 301C1017.3 301 1001.7 301 986 301C970.3 301 954.7 301 939 301C923.3 301 907.7 301 892 301C876.3 301 860.7 301 845 301C829.3 301 813.7 301 798 301C782.3 301 766.7 301 751 301C735.3 301 719.7 301 704 301C688.3 301 672.7 301 657 301C641.3 301 625.7 301 610 301C594.3 301 578.7 301 563.2 301C547.7 301 532.3 301 516.8 301C501.3 301 485.7 301 470 301C454.3 301 438.7 301 423 301C407.3 301 391.7 301 376 301C360.3 301 344.7 301 329 301C313.3 301 297.7 301 282 301C266.3 301 250.7 301 235 301C219.3 301 203.7 301 188 301C172.3 301 156.7 301 141 301C125.3 301 109.7 301 94 301C78.3 301 62.7 301 47 301C31.3 301 15.7 301 7.8 301L0 301Z" fill="#ffbb9b"></path><path d="M0 250L7.8 249.3C15.7 248.7 31.3 247.3 47 249.7C62.7 252 78.3 258 94 261.2C109.7 264.3 125.3 264.7 141 264C156.7 263.3 172.3 261.7 188 260.8C203.7 260 219.3 260 235 257.5C250.7 255 266.3 250 282 250C297.7 250 313.3 255 329 256.5C344.7 258 360.3 256 376 254.8C391.7 253.7 407.3 253.3 423 255C438.7 256.7 454.3 260.3 470 262C485.7 263.7 501.3 263.3 516.8 260.8C532.3 258.3 547.7 253.7 563.2 252.3C578.7 251 594.3 253 610 255.5C625.7 258 641.3 261 657 259.3C672.7 257.7 688.3 251.3 704 248.8C719.7 246.3 735.3 247.7 751 250.5C766.7 253.3 782.3 257.7 798 258.7C813.7 259.7 829.3 257.3 845 257.8C860.7 258.3 876.3 261.7 892 262.7C907.7 263.7 923.3 262.3 939 261.8C954.7 261.3 970.3 261.7 986 259.7C1001.7 257.7 1017.3 253.3 1033 250.8C1048.7 248.3 1064.3 247.7 1072.2 247.3L1080 247L1080 301L1072.2 301C1064.3 301 1048.7 301 1033 301C1017.3 301 1001.7 301 986 301C970.3 301 954.7 301 939 301C923.3 301 907.7 301 892 301C876.3 301 860.7 301 845 301C829.3 301 813.7 301 798 301C782.3 301 766.7 301 751 301C735.3 301 719.7 301 704 301C688.3 301 672.7 301 657 301C641.3 301 625.7 301 610 301C594.3 301 578.7 301 563.2 301C547.7 301 532.3 301 516.8 301C501.3 301 485.7 301 470 301C454.3 301 438.7 301 423 301C407.3 301 391.7 301 376 301C360.3 301 344.7 301 329 301C313.3 301 297.7 301 282 301C266.3 301 250.7 301 235 301C219.3 301 203.7 301 188 301C172.3 301 156.7 301 141 301C125.3 301 109.7 301 94 301C78.3 301 62.7 301 47 301C31.3 301 15.7 301 7.8 301L0 301Z" fill="#ffc298"></path><path d="M0 280L7.8 280.3C15.7 280.7 31.3 281.3 47 281.3C62.7 281.3 78.3 280.7 94 279.5C109.7 278.3 125.3 276.7 141 275.8C156.7 275 172.3 275 188 273.8C203.7 272.7 219.3 270.3 235 270.3C250.7 270.3 266.3 272.7 282 273.5C297.7 274.3 313.3 273.7 329 275.3C344.7 277 360.3 281 376 280.5C391.7 280 407.3 275 423 272.2C438.7 269.3 454.3 268.7 470 270.7C485.7 272.7 501.3 277.3 516.8 278C532.3 278.7 547.7 275.3 563.2 274.7C578.7 274 594.3 276 610 278.2C625.7 280.3 641.3 282.7 657 282.3C672.7 282 688.3 279 704 278.2C719.7 277.3 735.3 278.7 751 277.8C766.7 277 782.3 274 798 273.8C813.7 273.7 829.3 276.3 845 278C860.7 279.7 876.3 280.3 892 279.7C907.7 279 923.3 277 939 275.2C954.7 273.3 970.3 271.7 986 271.7C1001.7 271.7 1017.3 273.3 1033 274C1048.7 274.7 1064.3 274.3 1072.2 274.2L1080 274L1080 301L1072.2 301C1064.3 301 1048.7 301 1033 301C1017.3 301 1001.7 301 986 301C970.3 301 954.7 301 939 301C923.3 301 907.7 301 892 301C876.3 301 860.7 301 845 301C829.3 301 813.7 301 798 301C782.3 301 766.7 301 751 301C735.3 301 719.7 301 704 301C688.3 301 672.7 301 657 301C641.3 301 625.7 301 610 301C594.3 301 578.7 301 563.2 301C547.7 301 532.3 301 516.8 301C501.3 301 485.7 301 470 301C454.3 301 438.7 301 423 301C407.3 301 391.7 301 376 301C360.3 301 344.7 301 329 301C313.3 301 297.7 301 282 301C266.3 301 250.7 301 235 301C219.3 301 203.7 301 188 301C172.3 301 156.7 301 141 301C125.3 301 109.7 301 94 301C78.3 301 62.7 301 47 301C31.3 301 15.7 301 7.8 301L0 301Z" fill="#fbca98"></path></svg>